<svg width="106" height="107" viewBox="0 0 106 107" fill="none" xmlns="http://www.w3.org/2000/svg">
<path d="M97.4444 70.1667C97.4444 80.5222 97.4444 85.7 95.7556 89.7778C94.6388 92.4742 93.0018 94.9243 90.938 96.988C88.8743 99.0518 86.4242 100.689 83.7278 101.806C79.6444 103.5 74.4667 103.5 64.1111 103.5H47.4444C26.4889 103.5 16.0111 103.5 9.5 96.9889C3 90.4833 3 80.0056 3 59.0556V25.7222C3 19.8285 5.34126 14.1762 9.50874 10.0087C13.6762 5.84126 19.3285 3.5 25.2222 3.5" stroke="#3800A9" stroke-width="6" stroke-linecap="round" stroke-linejoin="round"/>
<path d="M41.8893 34.0557L44.3004 56.1057C44.4029 57.0097 44.7398 57.8712 45.2777 58.605C45.8156 59.3388 46.5358 59.9193 47.3671 60.289C51.1782 61.9279 58.3171 64.6112 64.1115 64.6112C69.906 64.6112 77.0449 61.9279 80.856 60.289C81.6883 59.92 82.4097 59.3398 82.9486 58.606C83.4875 57.8722 83.8252 57.0103 83.9282 56.1057L86.3338 34.0557M100.223 28.5001V49.4446M64.1115 9.05566L25.2227 25.7223L64.1115 42.389L103 25.7223L64.1115 9.05566Z" stroke="#3800A9" stroke-width="6" stroke-linecap="round" stroke-linejoin="round"/>
</svg>
