<svg width="121" height="121" viewBox="0 0 121 121" fill="none" xmlns="http://www.w3.org/2000/svg">
<path d="M88.6121 52.8366C89.2257 52.0633 89.5125 51.0808 89.4114 50.0988C89.3102 49.1169 88.8291 48.2134 88.0707 47.5815C87.3124 46.9496 86.337 46.6392 85.3529 46.7168C84.3688 46.7943 83.4541 47.2537 82.8041 47.9966L73.7442 58.8665C71.8788 61.11 70.7243 62.4763 69.7815 63.3283C69.5349 63.5675 69.2587 63.7742 68.9597 63.9434L68.9042 63.9686L68.8488 63.9434C68.548 63.7746 68.2701 63.5679 68.0219 63.3283C67.0792 62.4712 65.9297 61.11 64.0592 58.8665L62.587 57.1019C60.9334 55.1104 59.436 53.3206 58.0445 52.0602C56.527 50.6889 54.6162 49.4688 52.0953 49.4688C49.5745 49.4688 47.6687 50.6889 46.1462 52.0602C44.7547 53.3206 43.2623 55.1104 41.6087 57.1019L32.3824 68.1633C32.0646 68.545 31.8251 68.9855 31.6776 69.4598C31.53 69.934 31.4773 70.4327 31.5225 70.9273C31.6138 71.9262 32.0981 72.848 32.8689 73.4898C33.6398 74.1316 34.634 74.4409 35.633 74.3497C36.6319 74.2585 37.5536 73.7741 38.1955 73.0033L47.2553 62.1335C49.1207 59.8899 50.2753 58.5236 51.2181 57.6716C51.4647 57.4324 51.7409 57.2257 52.0399 57.0565L52.0953 57.0313L52.1508 57.0565C52.4516 57.2253 52.7294 57.432 52.9776 57.6716C53.9204 58.5287 55.0699 59.8899 56.9404 62.1335L58.4125 63.898C60.0712 65.8895 61.5636 67.6793 62.9551 68.9397C64.4726 70.311 66.3834 71.5311 68.9042 71.5311C71.4251 71.5311 73.3308 70.311 74.8534 68.9397C76.2449 67.6793 77.7372 65.8895 79.3909 63.898L88.6121 52.8366Z" fill="#3800A9"/>
<path fill-rule="evenodd" clip-rule="evenodd" d="M60.2123 6.30212C48.5711 6.30212 39.4507 6.30212 32.3319 7.26004C25.0517 8.23812 19.3042 10.285 14.7919 14.7923C10.2796 19.3046 8.23776 25.0521 7.25967 32.3373C6.30176 39.4511 6.30176 48.5715 6.30176 60.2127V60.7874C6.30176 72.4286 6.30176 81.549 7.25967 88.6678C8.23776 95.948 10.2847 101.696 14.7919 106.208C19.3042 110.72 25.0517 112.762 32.3369 113.74C39.4507 114.698 48.5711 114.698 60.2123 114.698H60.7871C72.4283 114.698 81.5486 114.698 88.6675 113.74C95.9476 112.762 101.695 110.715 106.207 106.208C110.72 101.696 112.762 95.948 113.74 88.6628C114.698 81.549 114.698 72.4286 114.698 60.7874V60.2127C114.698 48.5715 114.698 39.4511 113.74 32.3323C112.762 25.0521 110.715 19.3046 106.207 14.7923C101.695 10.28 95.9476 8.23812 88.6624 7.26004C81.5486 6.30212 72.4283 6.30212 60.7871 6.30212H60.2123ZM20.1411 20.1415C23.0149 17.2677 26.897 15.6191 33.3453 14.752C39.8994 13.8747 48.5106 13.8646 60.4997 13.8646C72.4888 13.8646 81.0999 13.8747 87.6541 14.752C94.1024 15.6191 97.9895 17.2728 100.863 20.1415C103.732 23.0152 105.381 26.8973 106.248 33.3456C107.125 39.8998 107.135 48.511 107.135 60.5C107.135 72.4891 107.125 81.1003 106.248 87.6545C105.381 94.1028 103.727 97.9899 100.858 100.864C97.9845 103.732 94.1024 105.381 87.6541 106.248C81.0999 107.125 72.4888 107.135 60.4997 107.135C48.5106 107.135 39.8994 107.125 33.3453 106.248C26.897 105.381 23.0098 103.727 20.1361 100.859C17.2674 97.9848 15.6188 94.1028 14.7516 87.6545C13.8743 81.1003 13.8643 72.4891 13.8643 60.5C13.8643 48.511 13.8743 39.8998 14.7516 33.3456C15.6188 26.8973 17.2724 23.0152 20.1411 20.1415Z" fill="#3800A9"/>
</svg>
