<svg width="102" height="113" viewBox="0 0 102 113" fill="none" xmlns="http://www.w3.org/2000/svg">
<path d="M98.1111 56.5V86.2222C98.1111 97.4334 98.1111 103.033 94.6277 106.517C91.1442 110 85.5446 110 74.3333 110H17.8611C13.9197 110 10.1397 108.434 7.35272 105.647C4.56572 102.86 3 99.0803 3 95.1389M98.1111 56.5C98.1111 67.7112 98.1111 73.3109 94.6277 76.7943C91.1442 80.2778 85.5446 80.2778 74.3333 80.2778H17.8611C13.9197 80.2778 10.1397 81.8435 7.35272 84.6305C4.56572 87.4175 3 91.1975 3 95.1389M98.1111 56.5V26.7778C98.1111 15.5666 98.1111 9.96689 94.6277 6.48344C91.1442 3 85.5446 3 74.3333 3H26.7778C15.5666 3 9.96689 3 6.48344 6.48344C3 9.96689 3 15.5666 3 26.7778V95.1389" stroke="white" stroke-width="6"/>
<path d="M32.7227 44.6112L40.4088 52.2973C41.5236 53.4118 43.0353 54.0378 44.6115 54.0378C46.1878 54.0378 47.6995 53.4118 48.8143 52.2973L68.3893 32.7223" stroke="white" stroke-width="6" stroke-linecap="round"/>
</svg>
