<svg width="120" height="120" viewBox="0 0 120 120" fill="none" xmlns="http://www.w3.org/2000/svg">
<path d="M55.035 105H48.025C30.1 105 21.14 105 15.57 99.325C10 93.65 10 84.515 10 66.25C10 47.985 10 38.85 15.57 33.175C21.14 27.5 30.1 27.5 48.025 27.5H67.04C84.965 27.5 93.93 27.5 99.5 33.175C103.785 37.54 104.77 43.955 105 55" stroke="#3800A9" stroke-width="6" stroke-linecap="round" stroke-linejoin="round"/>
<path d="M100.085 100.115L110 110M80 27.5L79.5 25.95C77.025 18.25 75.79 14.4 72.845 12.2C69.895 10 65.985 10 58.15 10H56.835C49.01 10 45.095 10 42.15 12.2C39.2 14.4 37.965 18.25 35.49 25.95L35 27.5M105.265 87.63C105.304 85.2895 104.877 82.9645 104.009 80.7907C103.141 78.6169 101.848 76.6378 100.207 74.9687C98.5656 73.2996 96.6085 71.9739 94.4496 71.069C92.2908 70.1641 89.9734 69.6981 87.6325 69.6981C85.2917 69.6981 82.9742 70.1641 80.8154 71.069C78.6565 71.9739 76.6994 73.2996 75.0581 74.9687C73.4169 76.6378 72.1244 78.6169 71.256 80.7907C70.3875 82.9645 69.9606 85.2895 70 87.63C70.0779 92.255 71.9698 96.6643 75.2681 99.9074C78.5664 103.151 83.0068 104.968 87.6325 104.968C92.2582 104.968 96.6986 103.151 99.9969 99.9074C103.295 96.6643 105.187 92.255 105.265 87.63Z" stroke="#3800A9" stroke-width="6" stroke-linecap="round" stroke-linejoin="round"/>
</svg>
