<svg width="107" height="108" viewBox="0 0 107 108" fill="none" xmlns="http://www.w3.org/2000/svg">
<path d="M3 64.1V104.5M40.0333 84.3H56.8667C60.4382 84.3 63.8635 85.7188 66.389 88.2443C68.9145 90.7698 70.3333 94.1951 70.3333 97.7667H3V70.8333H26.5667C30.1382 70.8333 33.5635 72.2521 36.089 74.7776C38.6145 77.3031 40.0333 80.7284 40.0333 84.3ZM40.0333 84.3H26.5667M32.1778 57.3667V25.9445C32.1778 23.5634 33.1236 21.2799 34.8073 19.5962C36.491 17.9125 38.7745 16.9667 41.1556 16.9667H95.0222C97.4033 16.9667 99.6868 17.9125 101.37 19.5962C103.054 21.2799 104 23.5634 104 25.9445V57.3667C104 59.7477 103.054 62.0313 101.37 63.7149C99.6868 65.3986 97.4033 66.3444 95.0222 66.3444H49.0111M32.1778 34.9222H104M68.0889 34.9222V43.9M81.5556 16.9667H54.6222L56.2427 7.25272C56.4173 6.20228 56.9597 5.24812 57.773 4.56069C58.5862 3.87325 59.6174 3.49731 60.6822 3.50001H75.4956C76.5581 3.5005 77.586 3.87789 78.3965 4.56505C79.2069 5.2522 79.7473 6.20456 79.9216 7.25272L81.5556 16.9667Z" stroke="#3800A9" stroke-width="6" stroke-linecap="round" stroke-linejoin="round"/>
</svg>
