<svg width="26" height="26" viewBox="0 0 26 26" fill="none" xmlns="http://www.w3.org/2000/svg">
<g clip-path="url(#clip0_104_2641)">
<path d="M12.9998 0.619141C6.17293 0.619141 0.619141 6.17293 0.619141 12.9998C0.619141 19.8266 6.17293 25.3804 12.9998 25.3804C19.8266 25.3804 25.3804 19.8266 25.3804 12.9998C25.3804 6.17293 19.8266 0.619141 12.9998 0.619141ZM12.9998 2.47628C14.3823 2.47445 15.7515 2.7454 17.0291 3.2736C18.3067 3.80181 19.4675 4.57689 20.4451 5.55446C21.4227 6.53202 22.1978 7.69285 22.726 8.97045C23.2542 10.248 23.5251 11.6173 23.5233 12.9998C23.5233 18.1877 19.7886 22.4749 14.8569 23.3506V16.0947H17.1013C17.4133 16.0947 17.677 15.8626 17.7151 15.5524L17.9472 13.6953C17.9581 13.6082 17.9504 13.5199 17.9246 13.436C17.8987 13.3522 17.8553 13.2748 17.7973 13.209C17.7392 13.1432 17.6679 13.0905 17.5879 13.0545C17.5079 13.0184 17.4212 12.9998 17.3334 12.9998H14.8569V10.8334C14.8569 10.15 15.4122 9.59471 16.0947 9.59471H17.3334C17.4974 9.59447 17.6545 9.52923 17.7705 9.41331C17.8864 9.29738 17.9516 9.14023 17.9519 8.97628V6.887C17.952 6.73251 17.8944 6.58356 17.7902 6.46945C17.6861 6.35534 17.543 6.28434 17.3891 6.27043C17.352 6.26671 16.4791 6.19057 15.3732 6.19057C12.6451 6.19057 11.1426 7.80907 11.1426 10.7508V12.9998H8.66614C8.58485 12.9998 8.50436 13.0158 8.42926 13.0469C8.35417 13.0781 8.28596 13.1237 8.22852 13.1812C8.17108 13.2388 8.12555 13.3071 8.09452 13.3822C8.0635 13.4573 8.04759 13.5378 8.04771 13.6191V15.4763C8.04771 15.818 8.32443 16.0947 8.66614 16.0947H11.1426V23.3506C6.211 22.4749 2.47628 18.1877 2.47628 12.9998C2.47445 11.6173 2.7454 10.248 3.2736 8.97045C3.80181 7.69285 4.57689 6.53202 5.55446 5.55446C6.53202 4.57689 7.69285 3.80181 8.97045 3.2736C10.248 2.7454 11.6173 2.47445 12.9998 2.47628Z" fill="#C2C5CA"/>
</g>
<defs>
<clipPath id="clip0_104_2641">
<rect width="26" height="26" fill="white"/>
</clipPath>
</defs>
</svg>
