<svg width="25" height="26" viewBox="0 0 25 26" fill="none" xmlns="http://www.w3.org/2000/svg">
<g clip-path="url(#clip0_104_2638)">
<path d="M7.69243 0.820312C3.63281 0.820312 0.320312 4.13281 0.320312 8.19243V17.8078C0.320312 21.8674 3.63281 25.1799 7.69243 25.1799H17.3078C21.3674 25.1799 24.6799 21.8674 24.6799 17.8078V8.19243C24.6799 4.13185 21.3674 0.820312 17.3078 0.820312H7.69243ZM7.69243 2.74339H17.3078C18.0239 2.74149 18.7334 2.88113 19.3953 3.1543C20.0573 3.42746 20.6587 3.82876 21.1651 4.33513C21.6715 4.8415 22.0728 5.44295 22.3459 6.10492C22.6191 6.76689 22.7588 7.47632 22.7568 8.19243V17.8078C22.7586 18.5239 22.6189 19.2333 22.3457 19.8952C22.0725 20.5571 21.6712 21.1585 21.1648 21.6648C20.6585 22.1712 20.0571 22.5725 19.3952 22.8457C18.7333 23.1189 18.0239 23.2586 17.3078 23.2568H7.69243C6.97632 23.2588 6.26689 23.1191 5.60492 22.8459C4.94295 22.5728 4.3415 22.1715 3.83513 21.6651C3.32876 21.1587 2.92746 20.5573 2.6543 19.8953C2.38113 19.2334 2.24149 18.5239 2.24339 17.8078V8.19243C2.24136 7.47628 2.38092 6.76679 2.65404 6.10477C2.92716 5.44275 3.32845 4.84124 3.83485 4.33485C4.34124 3.82845 4.94275 3.42716 5.60477 3.15404C6.26679 2.88092 6.97628 2.74136 7.69243 2.74339ZM18.9107 5.30781C18.5708 5.30768 18.2447 5.4426 18.0042 5.68288C17.7638 5.92316 17.6286 6.24913 17.6285 6.58906C17.6284 6.929 17.7633 7.25506 18.0036 7.49552C18.2438 7.73598 18.5698 7.87115 18.9097 7.87127C19.2497 7.87127 19.5757 7.73623 19.8161 7.49586C20.0564 7.25549 20.1915 6.92948 20.1915 6.58954C20.1915 6.24961 20.0564 5.92359 19.8161 5.68322C19.5757 5.44285 19.2506 5.30781 18.9107 5.30781ZM12.5001 6.58954C8.97127 6.58954 6.08954 9.47127 6.08954 13.0001C6.08954 16.529 8.97127 19.4107 12.5001 19.4107C16.029 19.4107 18.9107 16.529 18.9107 13.0001C18.9107 9.47127 16.029 6.58954 12.5001 6.58954ZM12.5001 8.51262C13.09 8.51071 13.6744 8.62549 14.2197 8.85033C14.765 9.07517 15.2604 9.40565 15.6775 9.82273C16.0946 10.2398 16.4251 10.7353 16.6499 11.2806C16.8748 11.8259 16.9895 12.4103 16.9876 13.0001C16.9895 13.59 16.8748 14.1744 16.6499 14.7197C16.4251 15.265 16.0946 15.7604 15.6775 16.1775C15.2604 16.5946 14.765 16.9251 14.2197 17.1499C13.6744 17.3748 13.09 17.4895 12.5001 17.4876C11.9103 17.4895 11.3259 17.3748 10.7806 17.1499C10.2353 16.9251 9.73981 16.5946 9.32273 16.1775C8.90565 15.7604 8.57517 15.265 8.35033 14.7197C8.12549 14.1744 8.01071 13.59 8.01262 13.0001C8.01071 12.4103 8.12549 11.8259 8.35033 11.2806C8.57517 10.7353 8.90565 10.2398 9.32273 9.82273C9.73981 9.40565 10.2353 9.07517 10.7806 8.85033C11.3259 8.62549 11.9103 8.51071 12.5001 8.51262Z" fill="#C2C5CA"/>
</g>
<defs>
<clipPath id="clip0_104_2638">
<rect width="25" height="25" fill="white" transform="translate(0 0.5)"/>
</clipPath>
</defs>
</svg>
