<svg width="26" height="26" viewBox="0 0 26 26" fill="none" xmlns="http://www.w3.org/2000/svg">
<g clip-path="url(#clip0_104_2644)">
<path d="M13.0137 0.619186C6.19702 0.619186 0.64695 6.16276 0.645093 12.9803C0.642367 15.1499 1.21185 17.2817 2.29609 19.1609L0.618164 25.3805L7.09681 23.8502C8.91003 24.8374 10.9417 25.3546 13.0062 25.3545H13.0109C19.8266 25.3545 25.3739 19.8081 25.3776 12.9924C25.3832 11.3673 25.0664 9.7572 24.4454 8.2554C23.8244 6.75361 22.9116 5.38994 21.7599 4.2434C20.6142 3.09084 19.2512 2.17704 17.7499 1.55493C16.2486 0.93282 14.6388 0.614765 13.0137 0.619186ZM13.0109 3.09476C14.3112 3.09189 15.5991 3.34669 16.8004 3.84443C18.0016 4.34218 19.0923 5.073 20.0095 5.99469C20.9304 6.91126 21.6602 8.00152 22.1566 9.20226C22.6529 10.403 22.906 11.6903 22.9011 12.9896C22.8992 18.4422 18.4634 22.878 13.009 22.878C11.3583 22.8775 9.73393 22.4645 8.28352 21.6764L7.44966 21.2214L6.52852 21.4396L4.09102 22.0153L4.68531 19.8053L4.95459 18.8127L4.44109 17.9231C3.57456 16.4201 3.11915 14.7153 3.12066 12.9803C3.12345 7.52961 7.55924 3.09476 13.0109 3.09476ZM8.63731 7.27333C8.43023 7.27333 8.09595 7.35133 7.81181 7.66054C7.52859 7.96883 6.72909 8.7154 6.72909 10.2355C6.72909 11.7565 7.83595 13.2255 7.99195 13.4325C8.14424 13.6378 10.1286 16.8571 13.2699 18.094C15.8792 19.1238 16.4094 18.9204 16.9768 18.8684C17.5432 18.8183 18.8061 18.1228 19.0642 17.4013C19.3214 16.6788 19.3224 16.0585 19.2453 15.9304C19.1682 15.8013 18.9621 15.7252 18.6529 15.5701C18.3446 15.416 16.8254 14.6694 16.5413 14.5673C16.2581 14.4642 16.051 14.4122 15.8449 14.7214C15.6406 15.0315 15.0491 15.7243 14.868 15.9304C14.6879 16.1375 14.5077 16.1653 14.1985 16.0103C13.8893 15.8543 12.8939 15.5274 11.7127 14.4744C10.7934 13.6573 10.1741 12.647 9.99302 12.3368C9.81381 12.0285 9.97631 11.8595 10.1314 11.7054C10.2707 11.567 10.4378 11.3451 10.5929 11.164C10.7461 10.9839 10.7999 10.8548 10.903 10.6496C11.0052 10.4435 10.9532 10.2624 10.8752 10.1073C10.799 9.95319 10.1973 8.42661 9.92338 7.81561C9.69124 7.30119 9.44702 7.28911 9.22695 7.28076C9.04774 7.27333 8.84252 7.27333 8.63638 7.27333H8.63731Z" fill="#C2C5CA"/>
</g>
<defs>
<clipPath id="clip0_104_2644">
<rect width="26" height="26" fill="white"/>
</clipPath>
</defs>
</svg>
