<svg width="151" height="52" viewBox="0 0 151 52" fill="none" xmlns="http://www.w3.org/2000/svg">
<path d="M49.505 28.8229H43.3443L50.8251 39.604L42.9043 50.605H49.0649L53.9054 44.0044L58.3058 50.605H64.6865L56.9857 39.604L64.4664 28.8229H58.3058L53.9054 35.4235L49.505 28.8229Z" fill="white"/>
<path d="M73.2673 22.8823L68.2068 24.6425V28.8229H65.7866V33.4433H68.2068V45.5445C68.2068 49.945 73.0473 51.1918 75.4675 51.2651C76.8757 51.2651 78.1078 50.8251 78.5479 50.605V46.4246H76.3476C74.4114 46.4246 73.7807 44.9578 73.7074 44.2244V33.4433H78.3278V28.8229H73.7074V22.8823H73.2673Z" fill="white"/>
<path d="M80.7481 50.605V20.242L84.4884 18.4818H85.5886L86.2486 19.3619V31.2431C87.8328 28.7789 91.3091 28.3095 92.8493 28.3828C100.066 28.3828 102.017 33.37 102.09 35.8636V50.605H96.5897V37.1837C96.5897 34.1914 93.216 33.15 91.5292 33.0033C88.1848 33.0033 86.6153 35.7902 86.2486 37.1837V50.605H80.7481Z" fill="white"/>
<path d="M105.83 50.8251V28.8229H111.331V50.8251H105.83Z" fill="white"/>
<path d="M114.851 50.8251V28.8229H120.352V31.6832C121.408 29.571 124.019 28.6029 125.192 28.3828H128.052V33.6634H124.532C121.892 33.8394 120.792 36.2303 120.572 37.4037V50.8251H114.851Z" fill="white"/>
<path d="M93.949 11.4411C92.7169 10.209 91.0888 10.9278 90.4287 11.4411C87.3484 14.3014 97.0293 24.4224 107.81 25.3025C116.435 26.0066 125.632 14.7415 129.153 9.0209V12.1012C129.373 12.5413 130.121 13.4213 131.353 13.4213C132.585 13.4213 133.186 12.5413 133.333 12.1012V1.32013C133.509 0.616062 132.673 0.146681 132.233 0H120.132C119.618 0.293363 118.591 1.18812 118.591 2.42024C118.591 3.65236 119.618 4.40044 120.132 4.62046H125.632C116.831 18.1738 110.084 20.5354 107.81 20.022C103.938 20.7261 96.956 14.5948 93.949 11.4411Z" fill="white"/>
<path d="M0 50.8389V28.8367H5.50055V31.697C5.85258 30.8169 6.674 30.0101 7.0407 29.7168C10.033 27.7806 13.2013 28.3967 14.5215 28.8367C17.8218 29.7168 19.582 33.4572 19.802 35.4374V50.8389H14.5215V36.7575C14.5215 33.9412 11.4411 33.2371 9.90099 33.2371C6.90869 33.2371 5.50055 35.4374 5.50055 36.7575V50.8389H0Z" fill="white"/>
<circle cx="109.791" cy="11.0011" r="5.50055" fill="white"/>
<path d="M33.1172 28.0058C34.5587 28.0058 35.9045 28.2887 37.1514 28.8554H37.1504C38.3932 29.3924 39.4677 30.1421 40.373 31.1035H40.374C41.3082 32.066 42.0146 33.2122 42.4951 34.539C42.941 35.6784 43.1809 36.9138 43.2148 38.2431L43.2168 38.8193L43.1748 40.6591L43.1719 40.8056H26.4053C26.5332 41.8071 26.8212 42.707 27.2695 43.5068C27.8959 44.5961 28.7808 45.4407 29.9268 46.041C31.0725 46.6411 32.3998 46.9433 33.9121 46.9433C34.982 46.9433 35.9667 46.7648 36.8672 46.4101H36.8682C37.7939 46.0562 38.7963 45.413 39.875 44.4726L40 44.3632L40.0957 44.498L42.2695 47.5498L42.3428 47.6533L42.2529 47.7431C41.5718 48.4242 40.7365 49.0169 39.75 49.5244L39.751 49.5253C38.7936 50.0322 37.7664 50.4397 36.6699 50.749L36.667 50.75C35.5965 51.0317 34.5388 51.1728 33.4941 51.1728C31.2152 51.1728 29.1827 50.6942 27.4023 49.7334L27.4004 49.7324C25.6505 48.7445 24.2659 47.4026 23.249 45.708L23.248 45.706C22.2576 44.0082 21.7637 42.0583 21.7637 39.8613C21.7637 38.1172 22.0454 36.5238 22.6104 35.083C23.1742 33.6451 23.9508 32.4016 24.9404 31.3554L25.3311 30.9648C26.2619 30.0803 27.3333 29.3901 28.5449 28.8955L29.0801 28.6875C30.3408 28.2333 31.6868 28.0059 33.1172 28.0058ZM33.1172 32.2773C31.6317 32.2773 30.3909 32.5664 29.3877 33.1357L29.3848 33.1376C28.3832 33.6791 27.624 34.4905 27.1074 35.5781V35.5791C26.8877 36.03 26.717 36.5302 26.5898 37.0781H38.5273V36.9394C38.4449 36.0498 38.1478 35.2571 37.6367 34.5576C37.1211 33.852 36.4704 33.2952 35.6826 32.8876C34.8966 32.4811 34.0418 32.2773 33.1172 32.2773Z" fill="white" stroke="white" stroke-width="0.3"/>
<path d="M140.048 28.0058C141.489 28.0058 142.835 28.2887 144.082 28.8554H144.081C145.324 29.3924 146.398 30.1421 147.304 31.1035H147.305C148.239 32.066 148.945 33.2122 149.426 34.539C149.872 35.6784 150.112 36.9137 150.146 38.2431L150.147 38.8193L150.105 40.6591L150.103 40.8056H133.336C133.464 41.8071 133.752 42.707 134.2 43.5068C134.827 44.5961 135.711 45.4407 136.857 46.041C138.003 46.6411 139.33 46.9433 140.843 46.9433C141.913 46.9433 142.897 46.7648 143.798 46.4101H143.799C144.725 46.0562 145.727 45.413 146.806 44.4726L146.931 44.3632L147.026 44.498L149.2 47.5498L149.273 47.6533L149.184 47.7431C148.502 48.4242 147.667 49.0169 146.681 49.5244L146.682 49.5253C145.724 50.0322 144.697 50.4397 143.601 50.749L143.598 50.75C142.527 51.0317 141.469 51.1728 140.425 51.1728C138.146 51.1728 136.113 50.6942 134.333 49.7334L134.331 49.7324C132.581 48.7445 131.197 47.4026 130.18 45.708L130.179 45.706C129.188 44.0082 128.694 42.0583 128.694 39.8613C128.694 38.1172 128.976 36.5238 129.541 35.083C130.105 33.6451 130.881 32.4016 131.871 31.3554L132.262 30.9648C133.193 30.0803 134.264 29.3901 135.476 28.8955L136.011 28.6875C137.271 28.2333 138.617 28.0059 140.048 28.0058ZM140.048 32.2773C138.562 32.2773 137.322 32.5664 136.318 33.1357L136.315 33.1376C135.314 33.6791 134.555 34.4905 134.038 35.5781V35.5791C133.818 36.03 133.648 36.5302 133.521 37.0781H145.458V36.9394C145.376 36.0498 145.078 35.2571 144.567 34.5576C144.052 33.852 143.401 33.2952 142.613 32.8876C141.827 32.4811 140.972 32.2773 140.048 32.2773Z" fill="white" stroke="white" stroke-width="0.3"/>
</svg>
